<?xml version="1.0" encoding="iso-8859-1"?>
<!-- Generator: Adobe Illustrator 21.0.0, SVG Export Plug-In . SVG Version: 6.00 Build 0)  -->
<svg version="1.1" id="Layer_1" xmlns="http://www.w3.org/2000/svg" xmlns:xlink="http://www.w3.org/1999/xlink" x="0px" y="0px"
	 viewBox="0 0 100.353 100.353" style="enable-background:new 0 0 100.353 100.353;" xml:space="preserve">
<path style="fill:#231F20;" d="M97.945,50.813c-0.363-0.746-1.261-1.055-2.004-0.694L85.33,55.274l-7.231,3.132
	c-1.116-0.288-3.967-1.035-6.528-1.794l-1.256-0.468c-0.184-0.068-0.373-0.096-0.558-0.091c-0.888-0.287-1.66-0.559-2.18-0.788
	c-2.494-1.098-6.95-3.679-8.746-5.237c-2.029-1.754-7.315-8.264-7.368-8.33c-0.449-0.554-1.226-0.715-1.858-0.386
	c-1.454,0.757-6.17,2.754-8.667,2.028c-1.318-0.392-3.757-1.73-4.447-2.563c-0.46-0.554-0.852-2.551-0.645-3.189
	c0.539-0.273,2.583,0.073,3.584,0.242c1.713,0.29,3.333,0.564,4.584,0.159c2.436-0.787,7.348-4.984,8.532-6.016
	c1.175-0.429,6.972-2.383,11.015-0.775c2.133,0.849,4.207,1.142,6.057,1.142c4.001,0,6.952-1.375,7.171-1.48l14.736-7.875
	c0.73-0.391,1.006-1.299,0.616-2.03c-0.391-0.73-1.299-1.007-2.03-0.616l-14.67,7.841c-0.051,0.024-5.269,2.418-10.771,0.23
	c-4.792-1.908-11.009-0.011-12.894,0.651c-2.091-0.793-7.969-2.896-10.581-2.5c-2.438,0.374-9.538,0.709-12.414,0.178
	c-1.214-0.343-10.436-5.333-18.495-9.853c-0.724-0.405-1.637-0.148-2.042,0.575c-0.405,0.722-0.148,1.637,0.574,2.042
	c5.271,2.957,17.711,9.866,19.367,10.175c3.518,0.652,11.078,0.214,13.461-0.151c1.178-0.179,4.378,0.702,7.179,1.66
	c-2.094,1.713-4.594,3.578-5.734,3.946c-0.554,0.179-1.999-0.066-3.161-0.263c-2.377-0.402-4.834-0.818-6.274,0.643
	c-1.607,1.647-0.644,5.771,0.524,7.177c1.205,1.455,4.25,3.034,5.911,3.527c3.232,0.939,7.701-0.769,9.792-1.714
	c1.582,1.919,5.23,6.275,6.982,7.79c2.186,1.897,7.087,4.652,9.501,5.715c0.94,0.414,2.529,0.932,4.227,1.439l7.035,2.621
	c0.368,0.19,0.647,0.544,0.83,1.054c0.318,0.887,0.254,2.071-0.157,2.943c-0.502,1.056-1.628,1.606-2.695,1.452
	c-0.211-0.122-0.448-0.19-0.693-0.2l-9.538-4.948c-0.735-0.382-1.641-0.094-2.022,0.641c-0.381,0.735-0.095,1.641,0.641,2.022
	l9.606,4.982c0.029,0.014,0.059,0.022,0.088,0.036c0.073,0.38,0.005,0.644-0.103,0.992c-0.073,0.234-0.158,0.508-0.201,0.825
	c-0.63,1.164-2.056,1.679-3.279,1.153l-8.051-3.499c-0.036-0.016-0.073-0.022-0.11-0.035c-0.048-0.017-0.096-0.035-0.144-0.046
	c-0.049-0.012-0.099-0.018-0.148-0.024c-0.048-0.006-0.095-0.014-0.142-0.016c-0.051-0.002-0.101,0.002-0.151,0.006
	c-0.046,0.003-0.092,0.004-0.137,0.012c-0.05,0.008-0.098,0.021-0.146,0.034c-0.044,0.012-0.089,0.022-0.132,0.038
	c-0.046,0.017-0.089,0.039-0.133,0.06c-0.043,0.021-0.086,0.04-0.127,0.065c-0.041,0.024-0.078,0.054-0.116,0.082
	c-0.04,0.029-0.079,0.058-0.116,0.091c-0.035,0.032-0.066,0.068-0.098,0.103c-0.034,0.038-0.069,0.074-0.099,0.115
	c-0.029,0.039-0.052,0.082-0.078,0.124c-0.021,0.035-0.045,0.065-0.063,0.102c-0.006,0.012-0.008,0.025-0.014,0.037
	c-0.005,0.011-0.013,0.02-0.017,0.031c-0.015,0.034-0.021,0.068-0.033,0.103c-0.018,0.051-0.037,0.102-0.049,0.153
	c-0.011,0.046-0.016,0.093-0.022,0.14c-0.007,0.05-0.015,0.1-0.016,0.15c-0.002,0.048,0.002,0.096,0.005,0.144
	s0.005,0.096,0.012,0.144c0.008,0.048,0.021,0.095,0.033,0.142c0.012,0.046,0.023,0.091,0.039,0.136
	c0.017,0.045,0.038,0.089,0.059,0.132c0.02,0.043,0.04,0.086,0.064,0.126c0.025,0.042,0.055,0.081,0.084,0.12
	c0.028,0.039,0.056,0.077,0.088,0.113c0.033,0.037,0.071,0.069,0.109,0.103c0.036,0.032,0.07,0.065,0.109,0.094
	c0.041,0.03,0.086,0.056,0.131,0.082c0.032,0.02,0.061,0.043,0.095,0.06l2.146,1.063c1.273,0.605,1.819,2.133,1.216,3.408
	c-0.296,0.626-0.817,1.099-1.467,1.331c-0.641,0.229-1.33,0.194-1.944-0.098l-6.035-2.851l1.72-2.918
	c1.656-2.799,0.724-6.429-2.076-8.091c-0.001,0-0.002-0.001-0.002-0.001c-1.25-0.738-2.663-0.963-3.993-0.742
	c0.273-2.673-0.946-5.371-3.359-6.806c-0.002-0.002-0.005-0.003-0.008-0.005c-2.397-1.408-5.303-1.208-7.502,0.256
	c-0.437-1.3-1.318-2.458-2.589-3.213c-2.821-1.656-6.461-0.723-8.114,2.078l-4.022,6.807l-9.844-7.042
	c-0.035-0.025-0.074-0.042-0.111-0.063c-0.036-0.021-0.068-0.047-0.106-0.065L4.06,50.122c-0.744-0.361-1.643-0.052-2.004,0.694
	c-0.362,0.745-0.051,1.643,0.694,2.005l10.527,5.114l10.096,7.223c-0.773,2.551,0.26,5.403,2.661,6.819
	c0.943,0.555,1.978,0.819,3,0.819c0.329,0,0.655-0.037,0.978-0.091c-0.284,2.696,0.946,5.418,3.383,6.86
	c1.077,0.634,2.278,0.958,3.502,0.958c0.623,0,1.252-0.084,1.873-0.254c0.764-0.209,1.475-0.544,2.118-0.977
	c0.442,1.292,1.326,2.441,2.593,3.192c0.941,0.554,1.975,0.818,2.996,0.818c2.024,0,4-1.036,5.105-2.898l1.597-2.711l6.279,2.967
	c0.753,0.358,1.56,0.539,2.37,0.539c0.628,0,1.258-0.108,1.868-0.326c1.406-0.501,2.533-1.522,3.171-2.875
	c0.442-0.935,0.593-1.931,0.503-2.892l1.546,0.672c0.711,0.307,1.454,0.451,2.185,0.451c2.156,0,4.217-1.259,5.132-3.359
	c0.083-0.189,0.125-0.386,0.125-0.592c0.004-0.055,0.056-0.219,0.093-0.339c0.11-0.355,0.258-0.83,0.277-1.445
	c1.8-0.251,3.448-1.375,4.286-3.14c0.754-1.596,0.857-3.604,0.27-5.241c-0.2-0.556-0.481-1.037-0.813-1.462l6.081-2.634
	c0.011-0.005,0.02-0.012,0.031-0.018c0.009-0.004,0.019-0.005,0.028-0.01l10.641-5.169C97.996,52.455,98.307,51.558,97.945,50.813z
	 M27.557,69.389c-1.39-0.819-1.858-2.612-1.044-3.994l4.854-8.217c0.542-0.917,1.517-1.426,2.518-1.426
	c0.507,0,1.021,0.131,1.488,0.405c1.381,0.821,1.843,2.611,1.029,3.99l-4.852,8.218C30.734,69.747,28.941,70.205,27.557,69.389z
	 M37.978,77.372c-1.055,0.288-2.141,0.147-3.06-0.394c-1.923-1.138-2.533-3.69-1.362-5.687l6.284-10.626
	c0.788-1.341,2.191-2.093,3.616-2.093c0.688,0,1.38,0.175,2.01,0.544c1.911,1.139,2.51,3.682,1.335,5.669l-6.28,10.625
	C39.949,76.383,39.046,77.08,37.978,77.372z M48.999,78.874c-0.818,1.379-2.612,1.837-3.993,1.023
	c-1.392-0.824-1.86-2.617-1.042-3.998l4.85-8.217c0.543-0.916,1.516-1.424,2.516-1.424c0.509,0,1.024,0.132,1.494,0.409
	c1.378,0.82,1.838,2.606,1.022,3.985l-2.035,3.454c-0.422,0.104-0.797,0.384-0.997,0.808c-0.158,0.335-0.175,0.697-0.085,1.029
	L48.999,78.874z"/>
</svg>
